<svg width="14" height="14" viewBox="0 0 14 14" fill="none" xmlns="http://www.w3.org/2000/svg">
<g id="vuesax/outline/gallery">
<g id="gallery">
<path id="Vector" d="M8.75002 13.2709H5.25002C2.08252 13.2709 0.729187 11.9175 0.729187 8.75002V5.25002C0.729187 2.08252 2.08252 0.729187 5.25002 0.729187H8.75002C11.9175 0.729187 13.2709 2.08252 13.2709 5.25002V8.75002C13.2709 11.9175 11.9175 13.2709 8.75002 13.2709ZM5.25002 1.60419C2.56085 1.60419 1.60419 2.56085 1.60419 5.25002V8.75002C1.60419 11.4392 2.56085 12.3959 5.25002 12.3959H8.75002C11.4392 12.3959 12.3959 11.4392 12.3959 8.75002V5.25002C12.3959 2.56085 11.4392 1.60419 8.75002 1.60419H5.25002Z" fill="white"/>
<path id="Vector_2" d="M5.24998 6.27083C4.36331 6.27083 3.64581 5.55333 3.64581 4.66667C3.64581 3.78 4.36331 3.0625 5.24998 3.0625C6.13665 3.0625 6.85415 3.78 6.85415 4.66667C6.85415 5.55333 6.13665 6.27083 5.24998 6.27083ZM5.24998 3.9375C4.84748 3.9375 4.52081 4.26417 4.52081 4.66667C4.52081 5.06917 4.84748 5.39583 5.24998 5.39583C5.65248 5.39583 5.97915 5.06917 5.97915 4.66667C5.97915 4.26417 5.65248 3.9375 5.24998 3.9375Z" fill="white"/>
<path id="Vector_3" d="M1.55753 11.4917C1.41753 11.4917 1.27753 11.4217 1.19586 11.2992C1.0617 11.1008 1.1142 10.8267 1.31836 10.6925L4.1942 8.76166C4.8242 8.33583 5.69336 8.38833 6.26503 8.87249L6.45753 9.04166C6.7492 9.29249 7.24503 9.29249 7.53086 9.04166L9.95753 6.95916C10.5759 6.42833 11.55 6.42833 12.1742 6.95916L13.125 7.77583C13.3059 7.93333 13.3292 8.20749 13.1717 8.39416C13.0142 8.57499 12.74 8.59833 12.5534 8.44083L11.6025 7.62416C11.3109 7.37333 10.815 7.37333 10.5234 7.62416L8.0967 9.70666C7.47836 10.2375 6.5042 10.2375 5.88003 9.70666L5.68753 9.53749C5.4192 9.30999 4.97586 9.28666 4.67836 9.49083L1.80253 11.4217C1.7267 11.4683 1.6392 11.4917 1.55753 11.4917Z" fill="white"/>
</g>
</g>
</svg>
